
        <svg xmlns="http://www.w3.org/2000/svg" xmlns:xlink="http://www.w3.org/1999/xlink" version="1.1" width="3162.292565245998" height="575.7292869089238" viewBox="0 0 3162.292565245998 575.7292869089238">
			
			<g transform="scale(8.114628262299878) translate(10, 10)">
				<defs id="SvgjsDefs12284"/><g id="SvgjsG12285" featureKey="Df7oLJ-0" transform="matrix(0.6480084148882918,0,0,0.6480084148882918,-8.75166147573814,-6.925602911887242)" fill="#fff"><g xmlns="http://www.w3.org/2000/svg" transform="matrix(1,0,0,1,-1.3534,6.34177)"><path d="M48.46,42.868L47.781,41.691C47.703,41.546 47.641,41.397 47.609,41.234C47.519,40.781 47.647,40.3 47.952,39.952C48.062,39.828 48.19,39.73 48.33,39.642L54.212,36.247C54.329,36.184 54.446,36.131 54.574,36.097C54.67,36.071 54.765,36.058 54.864,36.049C54.962,36.046 54.962,36.046 55.06,36.049C55.159,36.058 55.254,36.071 55.35,36.097C55.604,36.165 55.837,36.299 56.023,36.485C56.116,36.579 56.191,36.683 56.261,36.796L63.727,49.727C63.805,49.873 63.867,50.021 63.899,50.184C63.989,50.638 63.861,51.118 63.556,51.466C63.446,51.591 63.318,51.689 63.178,51.776L57.296,55.172C57.15,55.25 57.002,55.312 56.839,55.344C56.385,55.434 55.905,55.306 55.557,55.001C55.432,54.891 55.334,54.763 55.247,54.623L54.568,53.447L44.925,59.014C45.381,59.796 45.828,60.583 46.266,61.375C46.335,61.513 46.387,61.656 46.415,61.808C46.49,62.226 46.382,62.665 46.12,62.999C46.013,63.136 45.883,63.249 45.738,63.344C45.354,63.576 44.968,63.805 44.581,64.032L54.856,80.685C54.901,80.762 54.914,80.78 54.95,80.862C55.018,81.015 55.06,81.178 55.075,81.345C55.092,81.545 55.068,81.748 55.006,81.939C54.954,82.097 54.875,82.247 54.774,82.38C54.693,82.487 54.598,82.582 54.491,82.664C54.061,82.993 53.469,83.064 52.973,82.844C52.79,82.763 52.623,82.645 52.486,82.499C52.416,82.425 52.359,82.344 52.303,82.26L45.408,71.086L46.423,77.952C46.432,78.032 46.436,78.052 46.438,78.133C46.443,78.314 46.414,78.496 46.355,78.667C46.295,78.838 46.204,78.998 46.087,79.137C45.99,79.253 45.875,79.353 45.748,79.435C45.62,79.516 45.481,79.578 45.335,79.618C44.803,79.764 44.219,79.599 43.842,79.195C43.698,79.04 43.587,78.855 43.519,78.655C43.489,78.568 43.471,78.481 43.455,78.391L42.497,71.906L40.26,81.065L40.233,81.161C40.199,81.257 40.163,81.348 40.114,81.437C40.016,81.613 39.884,81.768 39.725,81.891C39.594,81.994 39.445,82.075 39.287,82.129C39.16,82.172 39.028,82.198 38.894,82.206C38.388,82.237 37.889,82.002 37.59,81.592C37.472,81.43 37.387,81.244 37.341,81.048C37.304,80.886 37.293,80.717 37.311,80.55C37.32,80.462 37.327,80.44 37.345,80.353L40.968,65.525C40.784,65.465 40.611,65.371 40.462,65.245C40.344,65.145 40.247,65.028 40.162,64.899C39.695,64.124 39.237,63.343 38.788,62.557L27.846,68.875C27.805,68.896 27.765,68.919 27.723,68.938C27.597,68.996 27.463,69.037 27.326,69.058C26.865,69.13 26.386,68.977 26.052,68.653C25.985,68.588 25.925,68.518 25.871,68.442C25.845,68.405 25.822,68.365 25.797,68.326L25.5,67.811C23.547,68.963 21.561,70.057 19.598,71.19C19.463,71.264 19.324,71.322 19.174,71.355C18.751,71.45 18.297,71.353 17.95,71.093C17.806,70.985 17.689,70.854 17.588,70.706C16.709,69.269 15.902,67.789 15.059,66.33C14.986,66.196 14.928,66.057 14.894,65.907C14.8,65.483 14.897,65.03 15.157,64.682C15.265,64.538 15.396,64.422 15.544,64.321C17.499,63.125 19.503,62.009 21.496,60.876L21.189,60.345C21.168,60.304 21.145,60.264 21.125,60.222C21.087,60.138 21.056,60.05 21.033,59.961C20.92,59.508 21.027,59.018 21.319,58.654C21.406,58.546 21.508,58.451 21.621,58.371C21.659,58.344 21.699,58.321 21.738,58.296L48.46,42.868ZM22.998,63.479L18.408,66.129L19.397,67.842L23.987,65.192L22.998,63.479ZM24.537,60.144L24.848,60.682C25.711,62.098 26.506,63.555 27.335,64.991L27.645,65.527L33.783,61.983C32.73,60.199 31.718,58.391 30.691,56.591L24.537,60.144ZM42.311,60.523L41.402,61.048L41.98,62.051L42.89,61.526L42.311,60.523ZM41.141,50.557L33.314,55.077C34.366,56.861 35.379,58.669 36.405,60.469L38.604,59.199C39.76,58.503 40.928,57.829 42.109,57.176L44.233,55.95C43.18,54.165 42.167,52.357 41.141,50.557ZM50.115,45.733L49.96,45.466L43.763,49.044C44.816,50.828 45.829,52.636 46.855,54.436L53.068,50.849L50.115,45.733ZM52.713,44.233L57.095,51.824L60.379,49.928L54.413,39.595C53.318,40.227 52.224,40.859 51.129,41.491L52.713,44.233ZM81.631,41.699C81.637,41.122 81.645,40.545 81.657,39.969C81.667,39.805 81.697,39.645 81.756,39.491C81.903,39.108 82.209,38.796 82.589,38.641C82.742,38.579 82.9,38.546 83.064,38.533C83.126,38.53 83.186,38.53 83.248,38.533C83.411,38.546 83.57,38.579 83.723,38.641C84.103,38.796 84.408,39.108 84.556,39.491C84.615,39.645 84.645,39.805 84.655,39.969C84.666,40.545 84.675,41.122 84.681,41.699C85.257,41.704 85.834,41.713 86.41,41.724C86.636,41.738 86.854,41.793 87.055,41.899C87.217,41.986 87.363,42.102 87.483,42.241C87.603,42.38 87.698,42.541 87.76,42.713C87.95,43.24 87.825,43.843 87.442,44.251C87.344,44.355 87.231,44.445 87.108,44.517C86.894,44.643 86.657,44.707 86.41,44.722C85.834,44.734 85.257,44.742 84.681,44.748C84.675,45.325 84.666,45.901 84.655,46.478C84.64,46.724 84.575,46.961 84.45,47.175C84.378,47.299 84.288,47.411 84.184,47.509C83.776,47.893 83.172,48.018 82.646,47.827C82.473,47.765 82.312,47.671 82.174,47.55C82.035,47.43 81.919,47.284 81.832,47.122C81.725,46.921 81.671,46.704 81.657,46.478C81.645,45.901 81.637,45.325 81.631,44.748C81.055,44.742 80.478,44.734 79.901,44.722C79.675,44.708 79.458,44.654 79.257,44.547C79.095,44.461 78.949,44.344 78.829,44.206C78.709,44.067 78.614,43.906 78.552,43.733C78.362,43.207 78.487,42.603 78.87,42.196C78.968,42.091 79.08,42.002 79.204,41.929C79.418,41.804 79.655,41.74 79.901,41.724C80.478,41.713 81.055,41.704 81.631,41.699ZM75.365,13.194C75.806,13.202 76.244,13.235 76.68,13.302C77.562,13.437 78.425,13.699 79.234,14.077C81.162,14.977 82.756,16.534 83.703,18.439C84.1,19.236 84.382,20.09 84.538,20.966C84.715,21.951 84.733,22.963 84.594,23.954C84.46,24.915 84.175,25.854 83.754,26.729C83.26,27.753 82.58,28.685 81.757,29.469C80.905,30.281 79.902,30.933 78.812,31.379C77.682,31.841 76.465,32.078 75.244,32.078C74.023,32.078 72.805,31.841 71.675,31.379C70.586,30.933 69.582,30.281 68.73,29.469C67.908,28.685 67.228,27.753 66.734,26.729C66.313,25.854 66.028,24.915 65.893,23.954C65.755,22.963 65.773,21.951 65.949,20.966C66.106,20.09 66.388,19.236 66.785,18.439C67.732,16.534 69.326,14.977 71.254,14.077C72.063,13.699 72.926,13.437 73.808,13.302C74.244,13.235 74.682,13.202 75.122,13.194C75.244,13.193 75.243,13.193 75.365,13.194ZM75.16,16.194C74.859,16.2 74.56,16.222 74.262,16.268C73.661,16.359 73.074,16.537 72.524,16.795C71.255,17.388 70.196,18.397 69.542,19.636C69.26,20.17 69.054,20.745 68.933,21.337C68.785,22.059 68.762,22.807 68.864,23.537C68.952,24.166 69.135,24.78 69.403,25.355C69.732,26.059 70.189,26.701 70.745,27.244C71.32,27.805 71.998,28.258 72.738,28.572C73.503,28.895 74.33,29.066 75.16,29.077C75.994,29.088 76.828,28.937 77.604,28.631C78.352,28.336 79.042,27.899 79.631,27.351C80.199,26.822 80.671,26.191 81.017,25.496C81.311,24.905 81.512,24.27 81.612,23.617C81.719,22.915 81.71,22.194 81.585,21.494C81.479,20.898 81.287,20.317 81.017,19.775C80.393,18.521 79.359,17.486 78.104,16.862C77.562,16.593 76.981,16.401 76.385,16.294C76.09,16.241 75.793,16.211 75.494,16.198C75.382,16.194 75.272,16.193 75.16,16.194ZM34.084,17.795C34.09,17.218 34.099,16.642 34.11,16.065C34.12,15.901 34.15,15.742 34.209,15.588C34.357,15.205 34.662,14.893 35.042,14.738C35.195,14.675 35.354,14.643 35.517,14.629C35.579,14.627 35.639,14.627 35.701,14.629C35.865,14.643 36.024,14.675 36.176,14.738C36.556,14.893 36.862,15.205 37.009,15.588C37.068,15.742 37.098,15.901 37.108,16.065C37.12,16.642 37.128,17.218 37.134,17.795C37.71,17.801 38.287,17.809 38.864,17.821C39.11,17.836 39.347,17.9 39.561,18.026C39.685,18.098 39.797,18.188 39.895,18.292C40.278,18.7 40.403,19.303 40.213,19.83C40.151,20.002 40.056,20.163 39.936,20.302C39.816,20.441 39.67,20.557 39.508,20.644C39.307,20.751 39.09,20.805 38.864,20.819C38.287,20.83 37.71,20.839 37.134,20.845C37.128,21.421 37.12,21.998 37.108,22.574C37.094,22.8 37.04,23.018 36.933,23.219C36.847,23.381 36.73,23.527 36.591,23.647C36.453,23.767 36.292,23.862 36.119,23.924C35.985,23.973 35.843,24.002 35.701,24.01C35.142,24.045 34.598,23.755 34.315,23.272C34.19,23.058 34.125,22.821 34.11,22.574C34.099,21.998 34.09,21.421 34.084,20.845C33.508,20.839 32.931,20.83 32.355,20.819C32.129,20.805 31.911,20.751 31.71,20.644C31.548,20.557 31.402,20.441 31.282,20.302C31.162,20.163 31.067,20.002 31.005,19.83C30.956,19.695 30.927,19.554 30.919,19.412C30.884,18.853 31.174,18.309 31.657,18.026C31.871,17.9 32.108,17.836 32.355,17.821C32.931,17.809 33.508,17.801 34.084,17.795ZM56.159,7.514C56.164,6.937 56.173,6.36 56.184,5.784C56.194,5.62 56.224,5.46 56.283,5.307C56.431,4.923 56.736,4.612 57.116,4.456C57.269,4.394 57.428,4.361 57.591,4.348C57.653,4.345 57.713,4.345 57.775,4.348C57.939,4.361 58.098,4.394 58.25,4.456C58.63,4.612 58.936,4.923 59.083,5.307C59.142,5.46 59.172,5.62 59.182,5.784C59.194,6.36 59.202,6.937 59.208,7.514C59.785,7.519 60.361,7.528 60.938,7.54C61.184,7.555 61.421,7.619 61.635,7.745C61.759,7.817 61.871,7.907 61.969,8.011C62.353,8.418 62.477,9.022 62.287,9.548C62.225,9.721 62.131,9.882 62.01,10.021C61.89,10.16 61.744,10.276 61.582,10.362C61.381,10.469 61.164,10.523 60.938,10.537C60.361,10.549 59.785,10.558 59.208,10.563C59.202,11.14 59.194,11.716 59.182,12.293C59.168,12.519 59.114,12.737 59.007,12.937C58.921,13.099 58.804,13.245 58.665,13.365C58.527,13.486 58.366,13.58 58.193,13.643C57.667,13.833 57.063,13.708 56.655,13.324C56.551,13.227 56.462,13.114 56.389,12.991C56.264,12.777 56.2,12.54 56.184,12.293C56.173,11.716 56.164,11.14 56.159,10.563C55.582,10.558 55.005,10.549 54.429,10.537C54.182,10.522 53.945,10.458 53.731,10.332C53.248,10.049 52.958,9.505 52.993,8.947C53.001,8.804 53.031,8.663 53.079,8.529C53.142,8.356 53.236,8.195 53.356,8.056C53.476,7.917 53.622,7.801 53.784,7.715C53.985,7.608 54.203,7.554 54.429,7.54C55.005,7.528 55.582,7.519 56.159,7.514Z" style=""/></g></g><g id="SvgjsG12286" featureKey="Ua4uQk-0" transform="matrix(2.0782170556423654,0,0,2.0782170556423654,64.92178294435763,-1.4692963880275034)" fill="#fff"><path d="M4.12 13.620000000000001 l4.08 6.38 l-1.2 0 l-4.06 -6.34 l-0.92 0 l0 6.32 l-1.02 0 l0 -13.98 l2.88 0 l0.28 0 c1.34 0.16 2.4 1.3 2.4 2.68 l0 2.1 c0 1.44 -1.06 2.64 -2.44 2.84 z M2.02 12.64 l1.66 0 c1.02 0 1.86 -0.82 1.86 -1.86 l0 -2.1 c0 -0.92 -0.74 -1.68 -1.66 -1.68 l-1.86 0 l0 5.64 z M16.4125 6 l2.88 14 l-1.04 0 l-2.48 -12.04 c-0.5 1.9 -1.44 5.44 -3.24 12.04 l-1.06 0 c1.4 -5.16 3.34 -12.3 3.78 -14 l1.16 0 z M23.585 20 l-1.02 0 l0 -14 l1.02 0 l0 14 z M27.8775 18.92 l3.34 0 l0 1.02 l-4.36 0 l0 -13.94 l1.02 0 l0 12.92 z M41.03 9.84 l-1.02 0 l0 -1.6 c0 -0.68 -0.5 -1.24 -1.12 -1.24 l-1.92 0 c-0.8 0 -1.46 0.72 -1.46 1.54 c-0.02 2.34 1.02 2.86 2.3 3.52 c1.52 0.78 3.22 1.64 3.22 5.32 c0 0.72 -0.28 1.4 -0.76 1.88 c-0.46 0.46 -1.06 0.72 -1.7 0.72 l-2.08 0 c-1.1 0 -2 -0.94 -2 -2.1 l0 -1.5 l1.02 0 l0 1.5 c0 0.6 0.44 1.08 0.98 1.08 l2.08 0 c0.36 0 0.72 -0.14 0.98 -0.4 c0.3 -0.3 0.48 -0.74 0.46 -1.18 c0 -3.06 -1.22 -3.68 -2.66 -4.42 c-1.34 -0.68 -2.86 -1.46 -2.86 -4.42 c0 -1.32 0.98 -2.4 2.2 -2.54 l0.28 0 l1.92 0 l0.24 0 c1.08 0.14 1.9 1.08 1.9 2.24 l0 1.6 z M48.6425 6 c1.24 0.14 2.2 1.18 2.2 2.46 l0 9.04 c0 1.36 -1.1 2.46 -2.46 2.46 l-1.62 0 c-1.36 0 -2.46 -1.1 -2.46 -2.46 l0 -9.04 c0 -1.28 0.98 -2.32 2.22 -2.46 l0.24 0 l1.62 0 l0.26 0 z M49.822500000000005 17.5 l0 -9.04 c0 -0.8 -0.64 -1.46 -1.44 -1.46 l-1.62 0 c-0.8 0 -1.44 0.66 -1.44 1.46 l0 9.04 c0 0.8 0.64 1.46 1.44 1.46 l1.62 0 c0.8 0 1.44 -0.66 1.44 -1.46 z M58.675000000000004 12.48 c1.1 0.64 1.82 1.84 1.82 3.2 l0 0.58 c0 2.04 -1.66 3.7 -3.7 3.7 l-2.68 0 l0 -0.56 l0 -12.92 l0 -0.46 l3.24 0 c1.28 0 2.32 1.04 2.32 2.32 l0 2.16 c0 0.82 -0.4 1.54 -1 1.98 z M55.135000000000005 7.039999999999999 l0 4.92 l2.04 0 c0.82 0 1.48 -0.64 1.48 -1.46 l0 -2.16 c0 -0.72 -0.58 -1.3 -1.3 -1.3 l-2.22 0 z M59.495000000000005 16.259999999999998 l0 -0.58 c0 -1.48 -1.22 -2.7 -2.7 -2.7 l-1.66 0 l0 5.98 l1.66 0 c1.48 0 2.7 -1.22 2.7 -2.7 z M70.3075 9.84 l-1.02 0 l0 -1.6 c0 -0.68 -0.5 -1.24 -1.12 -1.24 l-1.92 0 c-0.8 0 -1.46 0.72 -1.46 1.54 c-0.02 2.34 1.02 2.86 2.3 3.52 c1.52 0.78 3.22 1.64 3.22 5.32 c0 0.72 -0.28 1.4 -0.76 1.88 c-0.46 0.46 -1.06 0.72 -1.7 0.72 l-2.08 0 c-1.1 0 -2 -0.94 -2 -2.1 l0 -1.5 l1.02 0 l0 1.5 c0 0.6 0.44 1.08 0.98 1.08 l2.08 0 c0.36 0 0.72 -0.14 0.98 -0.4 c0.3 -0.3 0.48 -0.74 0.46 -1.18 c0 -3.06 -1.22 -3.68 -2.66 -4.42 c-1.34 -0.68 -2.86 -1.46 -2.86 -4.42 c0 -1.32 0.98 -2.4 2.2 -2.54 l0.28 0 l1.92 0 l0.24 0 c1.08 0.14 1.9 1.08 1.9 2.24 l0 1.6 z M84.64 13.64 l4.06 6.36 l-1.2 0 l-4.04 -6.34 l-0.94 0 l0 3.14 l-1 0 l0 -3.14 l0 -7.66 l2.86 0 c0.1 0 0.2 0 0.3 0.02 c1.34 0.14 2.38 1.28 2.38 2.66 l0 2.12 c0 1.42 -1.06 2.62 -2.42 2.84 z M82.52 12.66 l1.66 0 c1.04 0 1.88 -0.84 1.88 -1.86 l0 -2.12 c0 -0.92 -0.76 -1.66 -1.68 -1.66 l-1.86 0 l0 5.64 z M74.6 13.76 l0 5.16 l8 0 l0 1.02 l-9.02 0 l0 -13.92 l0.5 0 l0 -0.02 l5.56 0 l0 1 l-5.04 0 l0 5.74 l5.04 0 l0 1.02 l-5.04 0 z M96.6925 6 l1.06 0 l-3.5 14 l-0.8 0 l-3.68 -14 l1.04 0 l3.02 11.48 z M104.26499999999999 6 l2.88 14 l-1.04 0 l-2.48 -12.04 c-0.5 1.9 -1.44 5.44 -3.24 12.04 l-1.06 0 c1.4 -5.16 3.34 -12.3 3.78 -14 l1.16 0 z M108.3175 6 l8 0 l0 1 l-3.36 0 l0 13 l-1.02 0 l0 -13 l-3.62 0 l0 -1 z M123.93 6 c1.24 0.14 2.2 1.18 2.2 2.46 l0 9.04 c0 1.36 -1.1 2.46 -2.46 2.46 l-1.62 0 c-1.36 0 -2.46 -1.1 -2.46 -2.46 l0 -9.04 c0 -1.28 0.98 -2.32 2.22 -2.46 l0.24 0 l1.62 0 l0.26 0 z M125.11 17.5 l0 -9.04 c0 -0.8 -0.64 -1.46 -1.44 -1.46 l-1.62 0 c-0.8 0 -1.44 0.66 -1.44 1.46 l0 9.04 c0 0.8 0.64 1.46 1.44 1.46 l1.62 0 c0.8 0 1.44 -0.66 1.44 -1.46 z M132.5225 13.620000000000001 l4.08 6.38 l-1.2 0 l-4.06 -6.34 l-0.92 0 l0 6.32 l-1.02 0 l0 -13.98 l2.88 0 l0.28 0 c1.34 0.16 2.4 1.3 2.4 2.68 l0 2.1 c0 1.44 -1.06 2.64 -2.44 2.84 z M130.4225 12.64 l1.66 0 c1.02 0 1.86 -0.82 1.86 -1.86 l0 -2.1 c0 -0.92 -0.74 -1.68 -1.66 -1.68 l-1.86 0 l0 5.64 z M145.475 6 l1.18 0 l-3.92 6.66 l-0.02 -0.02 l0 7.36 l-1.02 0 l0 -7.32 l-3.72 -6.68 l1.16 0 l3.1 5.54 z"/></g>
			</g>
		</svg>
	