<svg xmlns="http://www.w3.org/2000/svg"
    xmlns:xlink="http://www.w3.org/1999/xlink"
    version="1.1"
    width="3162.292565245998"
    height="575.7292869089238"
    viewBox="0 0 3162.292565245998 575.7292869089238">

  <g transform="scale(8.114628262299878) translate(10, 10)">
    <defs id="SvgjsDefs12284"/>
      <g transform=" scale(.75) translate(-14, -10)">
        <path d="M 47.324 42.404 L 46.645 41.227 C 46.567 41.082 46.505 40.933 46.473 40.77 C 46.383 40.317 46.511 39.836 46.816 39.488 C 46.926 39.364 47.054 39.266 47.194 39.178 L 53.076 35.783 C 53.193 35.72 53.31 35.667 53.438 35.633 C 53.534 35.607 53.629 35.594 53.728 35.585 C 53.826 35.582 53.826 35.582 53.924 35.585 C 54.023 35.594 54.118 35.607 54.214 35.633 C 54.468 35.701 54.701 35.835 54.887 36.021 C 54.98 36.115 55.055 36.219 55.125 36.332 L 62.591 49.263 C 62.669 49.409 62.731 49.557 62.763 49.72 C 62.853 50.174 62.725 50.654 62.42 51.002 C 62.31 51.127 62.182 51.225 62.042 51.312 L 56.16 54.708 C 56.014 54.786 55.866 54.848 55.703 54.88 C 55.249 54.97 54.769 54.842 54.421 54.537 C 54.296 54.427 54.198 54.299 54.111 54.159 L 53.432 52.983 L 43.789 58.55 C 44.245 59.332 44.692 60.119 45.13 60.911 C 45.199 61.049 45.251 61.192 45.279 61.344 C 45.354 61.762 45.246 62.201 44.984 62.535 C 44.877 62.672 44.747 62.785 44.602 62.88 C 44.218 63.112 43.832 63.341 43.445 63.568 L 53.72 80.221 C 53.765 80.298 53.778 80.316 53.814 80.398 C 53.882 80.551 53.924 80.714 53.939 80.881 C 53.956 81.081 53.932 81.284 53.87 81.475 C 53.818 81.633 53.739 81.783 53.638 81.916 C 53.557 82.023 53.462 82.118 53.355 82.2 C 52.925 82.529 52.333 82.6 51.837 82.38 C 51.654 82.299 51.487 82.181 51.35 82.035 C 51.28 81.961 51.223 81.88 51.167 81.796 L 44.272 70.622 L 45.287 77.488 C 45.296 77.568 45.3 77.588 45.302 77.669 C 45.307 77.85 45.278 78.032 45.219 78.203 C 45.159 78.374 45.068 78.534 44.951 78.673 C 44.854 78.789 44.739 78.889 44.612 78.971 C 44.484 79.052 44.345 79.114 44.199 79.154 C 43.667 79.3 43.083 79.135 42.706 78.731 C 42.562 78.576 42.451 78.391 42.383 78.191 C 42.353 78.104 42.335 78.017 42.319 77.927 L 41.361 71.442 L 39.124 80.601 L 39.097 80.697 C 39.063 80.793 39.027 80.884 38.978 80.973 C 38.88 81.149 38.748 81.304 38.589 81.427 C 38.458 81.53 38.309 81.611 38.151 81.665 C 38.024 81.708 37.892 81.734 37.758 81.742 C 37.252 81.773 36.753 81.538 36.454 81.128 C 36.336 80.966 36.251 80.78 36.205 80.584 C 36.168 80.422 36.157 80.253 36.175 80.086 C 36.184 79.998 36.191 79.976 36.209 79.889 L 39.832 65.061 C 39.648 65.001 39.475 64.907 39.326 64.781 C 39.208 64.681 39.111 64.564 39.026 64.435 C 38.559 63.66 38.101 62.879 37.652 62.093 L 26.71 68.411 C 26.669 68.432 26.629 68.455 26.587 68.474 C 26.461 68.532 26.327 68.573 26.19 68.594 C 25.729 68.666 25.25 68.513 24.916 68.189 C 24.849 68.124 24.789 68.054 24.735 67.978 C 24.709 67.941 24.686 67.901 24.661 67.862 L 24.364 67.347 C 22.411 68.499 20.425 69.593 18.462 70.726 C 18.327 70.8 18.188 70.858 18.038 70.891 C 17.615 70.986 17.161 70.889 16.814 70.629 C 16.67 70.521 16.553 70.39 16.452 70.242 C 15.573 68.805 14.766 67.325 13.923 65.866 C 13.85 65.732 13.792 65.593 13.758 65.443 C 13.664 65.019 13.761 64.566 14.021 64.218 C 14.129 64.074 14.26 63.958 14.408 63.857 C 16.363 62.661 18.367 61.545 20.36 60.412 L 20.053 59.881 C 20.032 59.84 20.009 59.8 19.989 59.758 C 19.951 59.674 19.92 59.586 19.897 59.497 C 19.784 59.044 19.891 58.554 20.183 58.19 C 20.27 58.082 20.372 57.987 20.485 57.907 C 20.523 57.88 20.563 57.857 20.602 57.832 L 47.324 42.404 Z M 21.862 63.015 L 17.272 65.665 L 18.261 67.378 L 22.851 64.728 L 21.862 63.015 Z M 23.401 59.68 L 23.712 60.218 C 24.575 61.634 25.37 63.091 26.199 64.527 L 26.509 65.063 L 32.647 61.519 C 31.594 59.735 30.582 57.927 29.555 56.127 L 23.401 59.68 Z M 41.175 60.059 L 40.266 60.584 L 40.844 61.587 L 41.754 61.062 L 41.175 60.059 Z M 40.005 50.093 L 32.178 54.613 C 33.23 56.397 34.243 58.205 35.269 60.005 L 37.468 58.735 C 38.624 58.039 39.792 57.365 40.973 56.712 L 43.097 55.486 C 42.044 53.701 41.031 51.893 40.005 50.093 Z M 48.979 45.269 L 48.824 45.002 L 42.627 48.58 C 43.68 50.364 44.693 52.172 45.719 53.972 L 51.932 50.385 L 48.979 45.269 Z M 51.577 43.769 L 55.959 51.36 L 59.243 49.464 L 53.277 39.131 C 52.182 39.763 51.088 40.395 49.993 41.027 L 51.577 43.769 Z M 80.495 41.235 C 80.501 40.658 80.509 40.081 80.521 39.505 C 80.531 39.341 80.561 39.181 80.62 39.027 C 80.767 38.644 81.073 38.332 81.453 38.177 C 81.606 38.115 81.764 38.082 81.928 38.069 C 81.99 38.066 82.05 38.066 82.112 38.069 C 82.275 38.082 82.434 38.115 82.587 38.177 C 82.967 38.332 83.272 38.644 83.42 39.027 C 83.479 39.181 83.509 39.341 83.519 39.505 C 83.53 40.081 83.539 40.658 83.545 41.235 C 84.121 41.24 84.698 41.249 85.274 41.26 C 85.5 41.274 85.718 41.329 85.919 41.435 C 86.081 41.522 86.227 41.638 86.347 41.777 C 86.467 41.916 86.562 42.077 86.624 42.249 C 86.814 42.776 86.689 43.379 86.306 43.787 C 86.208 43.891 86.095 43.981 85.972 44.053 C 85.758 44.179 85.521 44.243 85.274 44.258 C 84.698 44.27 84.121 44.278 83.545 44.284 C 83.539 44.861 83.53 45.437 83.519 46.014 C 83.504 46.26 83.439 46.497 83.314 46.711 C 83.242 46.835 83.152 46.947 83.048 47.045 C 82.64 47.429 82.036 47.554 81.51 47.363 C 81.337 47.301 81.176 47.207 81.038 47.086 C 80.899 46.966 80.783 46.82 80.696 46.658 C 80.589 46.457 80.535 46.24 80.521 46.014 C 80.509 45.437 80.501 44.861 80.495 44.284 C 79.919 44.278 79.342 44.27 78.765 44.258 C 78.539 44.244 78.322 44.19 78.121 44.083 C 77.959 43.997 77.813 43.88 77.693 43.742 C 77.573 43.603 77.478 43.442 77.416 43.269 C 77.226 42.743 77.351 42.139 77.734 41.732 C 77.832 41.627 77.944 41.538 78.068 41.465 C 78.282 41.34 78.519 41.276 78.765 41.26 C 79.342 41.249 79.919 41.24 80.495 41.235 Z M 32.948 17.331 C 32.954 16.754 32.963 16.178 32.974 15.601 C 32.984 15.437 33.014 15.278 33.073 15.124 C 33.221 14.741 33.526 14.429 33.906 14.274 C 34.059 14.211 34.218 14.179 34.381 14.165 C 34.443 14.163 34.503 14.163 34.565 14.165 C 34.729 14.179 34.888 14.211 35.04 14.274 C 35.42 14.429 35.726 14.741 35.873 15.124 C 35.932 15.278 35.962 15.437 35.972 15.601 C 35.984 16.178 35.992 16.754 35.998 17.331 C 36.574 17.337 37.151 17.345 37.728 17.357 C 37.974 17.372 38.211 17.436 38.425 17.562 C 38.549 17.634 38.661 17.724 38.759 17.828 C 39.142 18.236 39.267 18.839 39.077 19.366 C 39.015 19.538 38.92 19.699 38.8 19.838 C 38.68 19.977 38.534 20.093 38.372 20.18 C 38.171 20.287 37.954 20.341 37.728 20.355 C 37.151 20.366 36.574 20.375 35.998 20.381 C 35.992 20.957 35.984 21.534 35.972 22.11 C 35.958 22.336 35.904 22.554 35.797 22.755 C 35.711 22.917 35.594 23.063 35.455 23.183 C 35.317 23.303 35.156 23.398 34.983 23.46 C 34.849 23.509 34.707 23.538 34.565 23.546 C 34.006 23.581 33.462 23.291 33.179 22.808 C 33.054 22.594 32.989 22.357 32.974 22.11 C 32.963 21.534 32.954 20.957 32.948 20.381 C 32.372 20.375 31.795 20.366 31.219 20.355 C 30.993 20.341 30.775 20.287 30.574 20.18 C 30.412 20.093 30.266 19.977 30.146 19.838 C 30.026 19.699 29.931 19.538 29.869 19.366 C 29.82 19.231 29.791 19.09 29.783 18.948 C 29.748 18.389 30.038 17.845 30.521 17.562 C 30.735 17.436 30.972 17.372 31.219 17.357 C 31.795 17.345 32.372 17.337 32.948 17.331 Z M 55.023 7.05 C 55.028 6.473 55.037 5.896 55.048 5.32 C 55.058 5.156 55.088 4.996 55.147 4.843 C 55.295 4.459 55.6 4.148 55.98 3.992 C 56.133 3.93 56.292 3.897 56.455 3.884 C 56.517 3.881 56.577 3.881 56.639 3.884 C 56.803 3.897 56.962 3.93 57.114 3.992 C 57.494 4.148 57.8 4.459 57.947 4.843 C 58.006 4.996 58.036 5.156 58.046 5.32 C 58.058 5.896 58.066 6.473 58.072 7.05 C 58.649 7.055 59.225 7.064 59.802 7.076 C 60.048 7.091 60.285 7.155 60.499 7.281 C 60.623 7.353 60.735 7.443 60.833 7.547 C 61.217 7.954 61.341 8.558 61.151 9.084 C 61.089 9.257 60.995 9.418 60.874 9.557 C 60.754 9.696 60.608 9.812 60.446 9.898 C 60.245 10.005 60.028 10.059 59.802 10.073 C 59.225 10.085 58.649 10.094 58.072 10.099 C 58.066 10.676 58.058 11.252 58.046 11.829 C 58.032 12.055 57.978 12.273 57.871 12.473 C 57.785 12.635 57.668 12.781 57.529 12.901 C 57.391 13.022 57.23 13.116 57.057 13.179 C 56.531 13.369 55.927 13.244 55.519 12.86 C 55.415 12.763 55.326 12.65 55.253 12.527 C 55.128 12.313 55.064 12.076 55.048 11.829 C 55.037 11.252 55.028 10.676 55.023 10.099 C 54.446 10.094 53.869 10.085 53.293 10.073 C 53.046 10.058 52.809 9.994 52.595 9.868 C 52.112 9.585 51.822 9.041 51.857 8.483 C 51.865 8.34 51.895 8.199 51.943 8.065 C 52.006 7.892 52.1 7.731 52.22 7.592 C 52.34 7.453 52.486 7.337 52.648 7.251 C 52.849 7.144 53.067 7.09 53.293 7.076 C 53.869 7.064 54.446 7.055 55.023 7.05 Z" style="fill:#fff"/>
        <path d="M 84.682 19.842 C 84.671 19.819 84.671 19.808 84.671 19.808 C 84.649 19.752 84.649 19.673 84.626 19.639 C 84.581 19.583 84.536 19.561 84.491 19.504 C 84.491 19.504 84.491 19.504 84.469 19.504 L 79.456 15.144 C 79.321 15.02 79.141 14.941 78.962 14.941 L 68.903 14.941 C 68.723 14.941 68.543 15.02 68.397 15.144 L 63.373 19.504 C 63.35 19.516 63.35 19.561 63.339 19.572 C 63.305 19.594 63.283 19.594 63.272 19.639 C 63.249 19.673 63.249 19.673 63.249 19.718 C 63.204 19.774 63.193 19.842 63.193 19.92 C 63.193 19.954 63.193 19.976 63.204 20.01 C 63.204 20.078 63.193 20.145 63.204 20.179 C 63.227 20.212 63.272 20.246 63.283 20.257 C 63.283 20.257 63.283 20.269 63.283 20.28 L 73.331 34.599 C 73.477 34.801 73.702 34.902 73.938 34.902 C 74.185 34.902 74.41 34.801 74.556 34.599 L 84.593 20.28 C 84.626 20.257 84.615 20.212 84.626 20.201 C 84.626 20.179 84.649 20.179 84.649 20.179 C 84.649 20.168 84.649 20.168 84.649 20.168 C 84.682 20.044 84.694 19.954 84.682 19.842 Z M 74.657 19.302 L 74.657 16.234 L 75.399 16.234 L 78.838 19.302 L 74.657 19.302 Z M 73.207 19.302 L 69.273 19.302 L 72.701 16.234 L 73.207 16.234 L 73.207 19.302 Z M 67.498 20.583 L 69.24 26.372 L 65.205 20.583 L 67.498 20.583 Z M 68.993 20.583 L 73.207 20.583 L 73.207 32.025 L 71.847 30.081 L 68.993 20.583 Z M 74.657 20.583 L 79.085 20.583 L 76.253 29.743 L 76.264 29.755 L 74.657 32.059 L 74.657 20.583 Z M 80.58 20.583 L 82.704 20.583 L 78.905 26.001 L 80.58 20.583 Z M 82.21 19.302 L 80.872 19.302 L 77.422 16.234 L 78.669 16.234 L 82.21 19.302 Z M 69.206 16.234 L 70.678 16.234 L 67.262 19.302 L 65.666 19.302 L 69.206 16.234 Z" style="fill: rgb(255, 255, 255);"/>
      </g>
    <g id="SvgjsG12286"
        transform="matrix(2.0782170556423654,0,0,2.0782170556423654,64.92178294435763,-1.4692963880275034)"
        fill="#fff">
      <path d="M4.12 13.620000000000001 l4.08 6.38 l-1.2 0 l-4.06 -6.34 l-0.92 0 l0 6.32 l-1.02 0 l0 -13.98 l2.88 0 l0.28 0 c1.34 0.16 2.4 1.3 2.4 2.68 l0 2.1 c0 1.44 -1.06 2.64 -2.44 2.84 z M2.02 12.64 l1.66 0 c1.02 0 1.86 -0.82 1.86 -1.86 l0 -2.1 c0 -0.92 -0.74 -1.68 -1.66 -1.68 l-1.86 0 l0 5.64 z M16.4125 6 l2.88 14 l-1.04 0 l-2.48 -12.04 c-0.5 1.9 -1.44 5.44 -3.24 12.04 l-1.06 0 c1.4 -5.16 3.34 -12.3 3.78 -14 l1.16 0 z M23.585 20 l-1.02 0 l0 -14 l1.02 0 l0 14 z M27.8775 18.92 l3.34 0 l0 1.02 l-4.36 0 l0 -13.94 l1.02 0 l0 12.92 z M41.03 9.84 l-1.02 0 l0 -1.6 c0 -0.68 -0.5 -1.24 -1.12 -1.24 l-1.92 0 c-0.8 0 -1.46 0.72 -1.46 1.54 c-0.02 2.34 1.02 2.86 2.3 3.52 c1.52 0.78 3.22 1.64 3.22 5.32 c0 0.72 -0.28 1.4 -0.76 1.88 c-0.46 0.46 -1.06 0.72 -1.7 0.72 l-2.08 0 c-1.1 0 -2 -0.94 -2 -2.1 l0 -1.5 l1.02 0 l0 1.5 c0 0.6 0.44 1.08 0.98 1.08 l2.08 0 c0.36 0 0.72 -0.14 0.98 -0.4 c0.3 -0.3 0.48 -0.74 0.46 -1.18 c0 -3.06 -1.22 -3.68 -2.66 -4.42 c-1.34 -0.68 -2.86 -1.46 -2.86 -4.42 c0 -1.32 0.98 -2.4 2.2 -2.54 l0.28 0 l1.92 0 l0.24 0 c1.08 0.14 1.9 1.08 1.9 2.24 l0 1.6 z M48.6425 6 c1.24 0.14 2.2 1.18 2.2 2.46 l0 9.04 c0 1.36 -1.1 2.46 -2.46 2.46 l-1.62 0 c-1.36 0 -2.46 -1.1 -2.46 -2.46 l0 -9.04 c0 -1.28 0.98 -2.32 2.22 -2.46 l0.24 0 l1.62 0 l0.26 0 z M49.822500000000005 17.5 l0 -9.04 c0 -0.8 -0.64 -1.46 -1.44 -1.46 l-1.62 0 c-0.8 0 -1.44 0.66 -1.44 1.46 l0 9.04 c0 0.8 0.64 1.46 1.44 1.46 l1.62 0 c0.8 0 1.44 -0.66 1.44 -1.46 z M58.675000000000004 12.48 c1.1 0.64 1.82 1.84 1.82 3.2 l0 0.58 c0 2.04 -1.66 3.7 -3.7 3.7 l-2.68 0 l0 -0.56 l0 -12.92 l0 -0.46 l3.24 0 c1.28 0 2.32 1.04 2.32 2.32 l0 2.16 c0 0.82 -0.4 1.54 -1 1.98 z M55.135000000000005 7.039999999999999 l0 4.92 l2.04 0 c0.82 0 1.48 -0.64 1.48 -1.46 l0 -2.16 c0 -0.72 -0.58 -1.3 -1.3 -1.3 l-2.22 0 z M59.495000000000005 16.259999999999998 l0 -0.58 c0 -1.48 -1.22 -2.7 -2.7 -2.7 l-1.66 0 l0 5.98 l1.66 0 c1.48 0 2.7 -1.22 2.7 -2.7 z M70.3075 9.84 l-1.02 0 l0 -1.6 c0 -0.68 -0.5 -1.24 -1.12 -1.24 l-1.92 0 c-0.8 0 -1.46 0.72 -1.46 1.54 c-0.02 2.34 1.02 2.86 2.3 3.52 c1.52 0.78 3.22 1.64 3.22 5.32 c0 0.72 -0.28 1.4 -0.76 1.88 c-0.46 0.46 -1.06 0.72 -1.7 0.72 l-2.08 0 c-1.1 0 -2 -0.94 -2 -2.1 l0 -1.5 l1.02 0 l0 1.5 c0 0.6 0.44 1.08 0.98 1.08 l2.08 0 c0.36 0 0.72 -0.14 0.98 -0.4 c0.3 -0.3 0.48 -0.74 0.46 -1.18 c0 -3.06 -1.22 -3.68 -2.66 -4.42 c-1.34 -0.68 -2.86 -1.46 -2.86 -4.42 c0 -1.32 0.98 -2.4 2.2 -2.54 l0.28 0 l1.92 0 l0.24 0 c1.08 0.14 1.9 1.08 1.9 2.24 l0 1.6 z M84.64 13.64 l4.06 6.36 l-1.2 0 l-4.04 -6.34 l-0.94 0 l0 3.14 l-1 0 l0 -3.14 l0 -7.66 l2.86 0 c0.1 0 0.2 0 0.3 0.02 c1.34 0.14 2.38 1.28 2.38 2.66 l0 2.12 c0 1.42 -1.06 2.62 -2.42 2.84 z M82.52 12.66 l1.66 0 c1.04 0 1.88 -0.84 1.88 -1.86 l0 -2.12 c0 -0.92 -0.76 -1.66 -1.68 -1.66 l-1.86 0 l0 5.64 z M74.6 13.76 l0 5.16 l8 0 l0 1.02 l-9.02 0 l0 -13.92 l0.5 0 l0 -0.02 l5.56 0 l0 1 l-5.04 0 l0 5.74 l5.04 0 l0 1.02 l-5.04 0 z M96.6925 6 l1.06 0 l-3.5 14 l-0.8 0 l-3.68 -14 l1.04 0 l3.02 11.48 z M104.26499999999999 6 l2.88 14 l-1.04 0 l-2.48 -12.04 c-0.5 1.9 -1.44 5.44 -3.24 12.04 l-1.06 0 c1.4 -5.16 3.34 -12.3 3.78 -14 l1.16 0 z M108.3175 6 l8 0 l0 1 l-3.36 0 l0 13 l-1.02 0 l0 -13 l-3.62 0 l0 -1 z M123.93 6 c1.24 0.14 2.2 1.18 2.2 2.46 l0 9.04 c0 1.36 -1.1 2.46 -2.46 2.46 l-1.62 0 c-1.36 0 -2.46 -1.1 -2.46 -2.46 l0 -9.04 c0 -1.28 0.98 -2.32 2.22 -2.46 l0.24 0 l1.62 0 l0.26 0 z M125.11 17.5 l0 -9.04 c0 -0.8 -0.64 -1.46 -1.44 -1.46 l-1.62 0 c-0.8 0 -1.44 0.66 -1.44 1.46 l0 9.04 c0 0.8 0.64 1.46 1.44 1.46 l1.62 0 c0.8 0 1.44 -0.66 1.44 -1.46 z M132.5225 13.620000000000001 l4.08 6.38 l-1.2 0 l-4.06 -6.34 l-0.92 0 l0 6.32 l-1.02 0 l0 -13.98 l2.88 0 l0.28 0 c1.34 0.16 2.4 1.3 2.4 2.68 l0 2.1 c0 1.44 -1.06 2.64 -2.44 2.84 z M130.4225 12.64 l1.66 0 c1.02 0 1.86 -0.82 1.86 -1.86 l0 -2.1 c0 -0.92 -0.74 -1.68 -1.66 -1.68 l-1.86 0 l0 5.64 z M145.475 6 l1.18 0 l-3.92 6.66 l-0.02 -0.02 l0 7.36 l-1.02 0 l0 -7.32 l-3.72 -6.68 l1.16 0 l3.1 5.54 z"/>
    </g>
  </g>
</svg>
	